# xmcd CD database file
#
# Track frame offsets:
#	150
#	18010
#	45857
#	68062
#	100120
#	118786
#	141976
#	166603
#	184510
#	223379
#	249889
#
# Disc length: 3569 seconds
#
# Revision: 0
# Processed by: cddbd v1.5.1PL2 Copyright (c) Steve Scherf et al.
# Submitted via: CDex 1.51
#
DISCID=880def0b
DTITLE=Charles Haynes and Charlie Robinson - Live at the 5th Street Steakhouse
DYEAR=2001
DGENRE=Jazz
TTITLE0=Nuages (Django Reinhart)
TTITLE1=Just Friends (Klemmer - Lewis)
TTITLE2=Do You Know What It Means to Miss New Orleans (De Lang - Alter)
TTITLE3=The Days of Wine and Roses (Henry Mancini)
TTITLE4=Black Orpheus (Luis Bonfa)
TTITLE5=East of the Sun, West of the Moon (Brooks Bowman)
TTITLE6=Take Five (Paul Desmond)
TTITLE7=Recordame (Joe Henderson)
TTITLE8=Autumn in New York (Vernon Duke)
TTITLE9=Don't Get Around Much Anymore (Duke Ellington)
TTITLE10=Undecided (Charlie Shavers)
EXTD=YEAR: 2001
EXTT0=
EXTT1=
EXTT2=
EXTT3=
EXTT4=
EXTT5=
EXTT6=
EXTT7=
EXTT8=
EXTT9=
EXTT10=
PLAYORDER=
